<svg width="27" height="26" viewBox="0 0 27 26" fill="none" xmlns="http://www.w3.org/2000/svg">
<path d="M0 23.7203V8.44694C0 7.88805 0.156111 7.37916 0.468333 6.92027C0.781667 6.46249 1.195 6.13305 1.70833 5.93194L16.885 0.106935C17.3339 -0.071954 17.7517 -0.0263988 18.1383 0.243601C18.525 0.514713 18.7183 0.886935 18.7183 1.36027V13.7836H21.5383C21.5383 13.078 21.7894 12.4747 22.2917 11.9736C22.7928 11.4703 23.3955 11.2186 24.1 11.2186C24.8044 11.2186 25.4083 11.4697 25.9117 11.9719C26.415 12.4742 26.6667 13.078 26.6667 13.7836V23.7203C26.6667 24.2092 26.5005 24.6197 26.1683 24.9519C25.8361 25.2842 25.425 25.4503 24.935 25.4503H1.73333C1.24333 25.4503 0.832222 25.2842 0.5 24.9519C0.167778 24.6197 0.00111111 24.2103 0 23.7203ZM1.66667 23.7836H10V16.4769C10 15.7358 10.2639 15.1019 10.7917 14.5753C11.3194 14.0486 11.9528 13.7847 12.6917 13.7836H17.0517V1.79027L2.30833 7.4836C2.115 7.56916 1.95944 7.69749 1.84167 7.8686C1.725 8.04083 1.66667 8.2336 1.66667 8.44694V23.7836ZM11.6667 23.7836H17.05V21.2203C17.05 20.8758 17.1778 20.5758 17.4333 20.3203C17.6889 20.0647 17.9889 19.9369 18.3333 19.9369C18.6778 19.9369 18.9778 20.0647 19.2333 20.3203C19.4889 20.5758 19.6167 20.8758 19.6167 21.2203V23.7836H25V15.4503H12.6933C12.3933 15.4503 12.1472 15.5464 11.955 15.7386C11.7628 15.9308 11.6667 16.1769 11.6667 16.4769V23.7836Z" fill="white"/>
</svg>
