<?xml version="1.0" encoding="UTF-8"?>
<svg version="1.1" xmlns="http://www.w3.org/2000/svg" width="681" height="387">
<path d="M0 0 C224.73 0 449.46 0 681 0 C681 127.71 681 255.42 681 387 C456.27 387 231.54 387 0 387 C0 259.29 0 131.58 0 0 Z " fill="#FEFEFE" transform="translate(0,0)"/>
<path d="M0 0 C2.98759416 1.83276512 5.69136987 3.84577019 8.43359375 6.03125 C13.46756927 9.99132986 18.57805427 13.79343228 23.81958008 17.47387695 C27.423842 20.01639519 30.95953615 22.63085401 34.46484375 25.30859375 C35.31868652 25.95538086 36.1725293 26.60216797 37.05224609 27.26855469 C38.74270872 28.55190533 40.42559835 29.84530332 42.10009766 31.14941406 C42.87272949 31.73303711 43.64536133 32.31666016 44.44140625 32.91796875 C45.12734863 33.44608154 45.81329102 33.97419434 46.52001953 34.51831055 C48.4262551 35.71529786 48.4262551 35.71529786 50.50488281 35.36352539 C52.75169275 34.42441614 54.46558312 33.29592428 56.41015625 31.828125 C57.5384082 30.98531982 57.5384082 30.98531982 58.68945312 30.12548828 C59.49189453 29.51688965 60.29433594 28.90829102 61.12109375 28.28125 C62.83142736 27.0017965 64.54238024 25.72317048 66.25390625 24.4453125 C67.1243457 23.79336914 67.99478516 23.14142578 68.89160156 22.46972656 C73.63896118 18.93635242 78.44301096 15.48153465 83.25708008 12.03979492 C86.51617467 9.70574068 89.74817546 7.36071378 92.890625 4.87109375 C93.85355469 4.11957031 94.81648437 3.36804688 95.80859375 2.59375 C97.00935547 1.62115234 97.00935547 1.62115234 98.234375 0.62890625 C100.49609375 -0.46875 100.49609375 -0.46875 102.74609375 -0.0546875 C106.79140033 2.27825919 110.46151441 5.03028703 114.18359375 7.84375 C115.88482759 9.11407054 117.58666559 10.38358231 119.2890625 11.65234375 C120.15321777 12.29800293 121.01737305 12.94366211 121.90771484 13.60888672 C125.90897643 16.58058392 129.95055246 19.49527074 133.99609375 22.40625 C134.73867432 22.94193604 135.48125488 23.47762207 136.24633789 24.02954102 C139.5155026 26.38757301 142.78787752 28.74094332 146.06640625 31.0859375 C147.57847656 32.17261719 147.57847656 32.17261719 149.12109375 33.28125 C150.40886719 34.20164062 150.40886719 34.20164062 151.72265625 35.140625 C152.30789063 35.59953125 152.893125 36.0584375 153.49609375 36.53125 C153.49609375 36.86125 153.49609375 37.19125 153.49609375 37.53125 C152.8846048 37.51491013 152.27311584 37.49857025 151.64309692 37.48173523 C145.18418095 37.32242622 138.72889413 37.25788292 132.26806641 37.24438477 C129.8686976 37.22751947 127.46936201 37.18778266 125.07080078 37.12329102 C108.29025176 36.69239174 97.83936634 38.55696419 85.23382568 49.97573853 C83.01354045 51.96320224 80.64647863 53.68706395 78.21484375 55.40625 C76.80807096 56.44721053 75.40180527 57.48885678 73.99609375 58.53125 C67.11988384 63.61440848 60.2057493 68.64128778 53.265625 73.63671875 C47.81525447 77.56517081 42.39940064 81.53836513 36.99609375 85.53125 C30.52059287 90.31550872 24.02288398 95.06716345 17.49609375 99.78125 C16.73619141 100.33039063 15.97628906 100.87953125 15.19335938 101.4453125 C12.31825598 103.51812263 9.44577498 105.56479585 6.49609375 107.53125 C6.1799033 110.16050352 6.05868213 112.55983854 6.0637207 115.19384766 C6.05352905 115.98417892 6.0433374 116.77451019 6.03283691 117.58879089 C6.00258167 120.20770236 5.99342209 122.82624886 5.984375 125.4453125 C5.96753756 127.25850655 5.9493886 129.07168886 5.92997742 130.88485718 C5.88236958 135.66223482 5.85263015 140.4395649 5.82653809 145.21710205 C5.79678678 150.09014283 5.75023793 154.96301947 5.70507812 159.8359375 C5.61892227 169.40097494 5.55318374 178.96599486 5.49609375 188.53125 C-4.40390625 188.53125 -14.30390625 188.53125 -24.50390625 188.53125 C-24.82078385 175.92648582 -25.07735727 163.32438456 -25.22927666 150.71653175 C-25.30220912 144.8614314 -25.40103318 139.00920673 -25.56005859 133.15576172 C-25.71270287 127.50150939 -25.79598629 121.85001335 -25.83218765 116.1938591 C-25.85796672 114.04138156 -25.90831614 111.88904756 -25.98412704 109.73775101 C-26.53937043 93.32169015 -26.53937043 93.32169015 -23.14460182 88.66776466 C-19.40436389 85.05753873 -15.11546056 82.84812597 -10.50390625 80.53125 C-8.7885495 79.32733957 -7.09242506 78.09431228 -5.4375 76.80859375 C-4.69089111 76.25445801 -3.94428223 75.70032227 -3.17504883 75.12939453 C-2.43794678 74.58138184 -1.70084473 74.03336914 -0.94140625 73.46875 C6.43831727 68.00400384 13.89766495 62.68781389 21.49609375 57.53125 C20.10057715 54.19582184 18.62657437 52.61072359 15.65234375 50.5859375 C14.52505859 49.80669922 14.52505859 49.80669922 13.375 49.01171875 C12.58996094 48.48191406 11.80492187 47.95210937 10.99609375 47.40625 C9.44291522 46.34274352 7.89078295 45.277707 6.33984375 44.2109375 C5.65083984 43.74413574 4.96183594 43.27733398 4.25195312 42.79638672 C2.49609375 41.53125 2.49609375 41.53125 0.49609375 39.53125 C-4.05710288 39.76128955 -7.1039516 42.07400633 -10.62890625 44.71875 C-11.52754395 45.37653442 -11.52754395 45.37653442 -12.44433594 46.04760742 C-14.47046385 47.53382821 -16.48711125 49.03239404 -18.50390625 50.53125 C-20.00596458 51.6387615 -21.50858686 52.74550849 -23.01171875 53.8515625 C-25.40643691 55.61434806 -27.80040029 57.37810605 -30.19189453 59.14526367 C-35.60385063 63.14308631 -41.04272144 67.10099733 -46.50390625 71.03125 C-53.49504212 76.06330607 -60.43829926 81.15695822 -67.36547852 86.27661133 C-73.78447766 91.01502875 -80.24260003 95.69748206 -86.71875 100.35742188 C-87.770625 101.11442383 -87.770625 101.11442383 -88.84375 101.88671875 C-89.45597412 102.32653076 -90.06819824 102.76634277 -90.69897461 103.21948242 C-91.29460205 103.65236572 -91.89022949 104.08524902 -92.50390625 104.53125 C-93.18987381 104.89292267 -93.87584137 105.25459534 -94.58259583 105.62722778 C-96.98731859 108.01031253 -96.99800156 109.74058984 -97.06504822 113.0448761 C-97.06001785 113.79150009 -97.05498749 114.53812408 -97.04980469 115.30737305 C-97.06014236 116.09785034 -97.07048004 116.88832764 -97.08113098 117.70275879 C-97.11063618 120.31636815 -97.11205974 122.9292057 -97.11328125 125.54296875 C-97.12825774 127.35473617 -97.14498376 129.1664899 -97.16339111 130.97822571 C-97.20713671 135.74741226 -97.22707962 140.51641465 -97.24212646 145.2857666 C-97.26167164 150.15221073 -97.30364449 155.01845519 -97.34375 159.88476562 C-97.41913039 169.43356606 -97.4673018 178.9822221 -97.50390625 188.53125 C-107.73390625 188.53125 -117.96390625 188.53125 -128.50390625 188.53125 C-128.79816305 176.0568512 -129.03640783 163.58477346 -129.17746449 151.10768318 C-129.24518222 145.31331111 -129.33694319 139.52144516 -129.48461914 133.72851562 C-129.62637084 128.13265452 -129.7036988 122.53919553 -129.73731041 116.94167709 C-129.76124549 114.81158504 -129.80799219 112.68161784 -129.87839699 110.55255508 C-130.39387033 94.31151153 -130.39387033 94.31151153 -127.23902893 89.67053223 C-123.80606174 86.10214485 -119.84044908 83.84799933 -115.50390625 81.53125 C-113.97217255 80.44785865 -112.45368402 79.34474648 -110.96484375 78.203125 C-109.60419004 77.22731582 -108.24220335 76.25336271 -106.87890625 75.28125 C-100.55373261 70.74232711 -94.263898 66.15965157 -88.00390625 61.53125 C-78.13467655 54.23993203 -68.19079391 47.05460422 -58.22607422 39.89453125 C-49.6077449 33.7015436 -41.0367345 27.45965379 -32.56445312 21.06811523 C-27.37758488 17.16438925 -22.14045503 13.33364169 -16.87890625 9.53125 C-16.13253906 8.99113281 -15.38617188 8.45101562 -14.6171875 7.89453125 C-13.21954461 6.88751813 -11.81711234 5.88710705 -10.40917969 4.89453125 C-9.19353276 4.0246988 -7.9961448 3.12834912 -6.82519531 2.19921875 C-4.34388393 0.3077921 -3.143641 -0.58851314 0 0 Z " fill="#D3B255" transform="translate(244.50390625,99.46875)"/>
<path d="M0 0 C4.99125 -0.061875 9.9825 -0.12375 15.125 -0.1875 C16.68879395 -0.21481201 18.25258789 -0.24212402 19.86376953 -0.27026367 C21.10755371 -0.27775635 22.35133789 -0.28524902 23.6328125 -0.29296875 C24.90012207 -0.3086792 26.16743164 -0.32438965 27.47314453 -0.34057617 C32.15261182 0.11130372 35.53703491 1.50913939 38.84375 4.87890625 C40.95250071 8.74732393 40.76017785 12.73609333 40 17 C37.625 20 37.625 20 35 22 C34.34 22.66 33.68 23.32 33 24 C34.093125 24.556875 35.18625 25.11375 36.3125 25.6875 C39.70553936 27.65189121 41.51983522 29.25605378 43 33 C43.5701247 38.22614305 42.82117855 41.56671942 40 46 C35.16310022 50.5144398 30.1847097 51.24843382 23.73046875 51.1953125 C22.48418701 51.19031738 21.23790527 51.18532227 19.95385742 51.18017578 C17.5945105 51.15286377 17.5945105 51.15286377 15.1875 51.125 C7.6696875 51.063125 7.6696875 51.063125 0 51 C0 34.17 0 17.34 0 0 Z " fill="#292627" transform="translate(376,189)"/>
<path d="M0 0 C4.95 0 9.9 0 15 0 C15.48210938 1.61390625 15.96421875 3.2278125 16.4609375 4.890625 C17.09876814 7.0104739 17.73679944 9.13026244 18.375 11.25 C18.69210937 12.31347656 19.00921875 13.37695312 19.3359375 14.47265625 C19.8 16.00986328 19.8 16.00986328 20.2734375 17.578125 C20.55622559 18.52075195 20.83901367 19.46337891 21.13037109 20.43457031 C21.91811109 22.7584254 22.84097313 24.84181203 24 27 C24.20681396 26.21761963 24.41362793 25.43523926 24.62670898 24.62915039 C25.56011974 21.10599004 26.49873732 17.58423789 27.4375 14.0625 C27.76298828 12.83080078 28.08847656 11.59910156 28.42382812 10.33007812 C28.73642578 9.16025391 29.04902344 7.99042969 29.37109375 6.78515625 C29.65911865 5.70113525 29.94714355 4.61711426 30.24389648 3.50024414 C31 1 31 1 32 0 C36.95 0 41.9 0 47 0 C47 16.5 47 33 47 50 C42.38 50 37.76 50 33 50 C32.67 39.77 32.34 29.54 32 19 C31.2575 22.0525 30.515 25.105 29.75 28.25 C27.84443559 35.97536307 25.72234484 43.51735384 23 51 C20.03 51 17.06 51 14 51 C13.85304688 50.37738281 13.70609375 49.75476563 13.5546875 49.11328125 C11.01598857 38.65209083 7.98335838 28.34230905 5 18 C4.67 28.56 4.34 39.12 4 50 C2.68 50 1.36 50 0 50 C0 33.5 0 17 0 0 Z " fill="#252122" transform="translate(516,189)"/>
<path d="M0 0 C4.95 0 9.9 0 15 0 C15 6.6 15 13.2 15 20 C18.96 20 22.92 20 27 20 C27 13.4 27 6.8 27 0 C31.95 0 36.9 0 42 0 C42 16.83 42 33.66 42 51 C37.05 51 32.1 51 27 51 C27 42.42 27 33.84 27 25 C23.04 25 19.08 25 15 25 C15 33.58 15 42.16 15 51 C10.05 51 5.1 51 0 51 C0 34.17 0 17.34 0 0 Z " fill="#282425" transform="translate(424,189)"/>
<path d="M0 0 C4.62 0 9.24 0 14 0 C17.56936622 11.56033499 21.12623291 23.10121088 24.15625 34.81640625 C25.15794109 38.59593514 26.29376166 42.32304178 27.484375 46.046875 C28 48 28 48 28 51 C23.05 51 18.1 51 13 51 C12.01 47.37 11.02 43.74 10 40 C4.72 40 -0.56 40 -6 40 C-6.66 43.63 -7.32 47.26 -8 51 C-9.98 51 -11.96 51 -14 51 C-13.31963928 44.55925186 -11.54095731 38.56717756 -9.6875 32.375 C-9.37208252 31.30773682 -9.05666504 30.24047363 -8.73168945 29.14086914 C-6.78922528 22.58598813 -4.81058242 16.04293196 -2.77734375 9.515625 C-1.80126318 6.3568517 -0.88865447 3.18434519 0 0 Z " fill="#2C292A" transform="translate(484,189)"/>
<path d="M0 0 C2.82145239 2.09800306 4.64053882 3.77148877 6.4375 6.8125 C6.6875 10.625 6.6875 10.625 6.4375 13.8125 C4.4575 14.1425 2.4775 14.4725 0.4375 14.8125 C0.32792969 14.18601563 0.21835937 13.55953125 0.10546875 12.9140625 C-0.05308594 12.09679687 -0.21164062 11.27953125 -0.375 10.4375 C-0.52582031 9.62539062 -0.67664063 8.81328125 -0.83203125 7.9765625 C-1.43794942 5.45429359 -1.43794942 5.45429359 -4.5625 3.8125 C-6.71040929 3.49649811 -6.71040929 3.49649811 -9 3.5625 C-9.76183594 3.55734375 -10.52367187 3.5521875 -11.30859375 3.546875 C-13.77693018 3.8377708 -15.420186 4.58274344 -17.5625 5.8125 C-17.5625 8.1225 -17.5625 10.4325 -17.5625 12.8125 C-14.94915268 13.86549709 -12.33266238 14.89892395 -9.6953125 15.890625 C-2.03925847 18.87350319 3.7247596 21.78714328 8.375 28.6875 C9.69298518 32.563927 10.16588374 35.76592369 9.4375 39.8125 C6.69018663 45.10362204 3.15624267 48.90625244 -2.5625 50.8125 C-19.58483634 51.95607105 -19.58483634 51.95607105 -25.5625 46.8125 C-29.14305163 42.65444005 -28.91248112 39.06221679 -28.5625 33.8125 C-27.5625 32.8125 -27.5625 32.8125 -24.5 32.75 C-23.530625 32.770625 -22.56125 32.79125 -21.5625 32.8125 C-21.52511719 33.49957031 -21.48773438 34.18664062 -21.44921875 34.89453125 C-21.38347656 35.79558594 -21.31773437 36.69664062 -21.25 37.625 C-21.19199219 38.51832031 -21.13398438 39.41164062 -21.07421875 40.33203125 C-20.4780018 43.22209054 -20.01206252 44.18122951 -17.5625 45.8125 C-14.92732342 46.28801123 -14.92732342 46.28801123 -12.0625 46.1875 C-11.1034375 46.19523437 -10.144375 46.20296875 -9.15625 46.2109375 C-6.53691672 46.01884717 -6.53691672 46.01884717 -4.75 44.44140625 C-3.38570872 42.8065037 -3.38570872 42.8065037 -3.0625 40.375 C-3.77918312 36.70199901 -5.53690449 35.94869227 -8.5625 33.8125 C-11.50670825 32.30498444 -14.46140697 30.89610331 -17.47851562 29.54492188 C-21.59889558 27.59832075 -24.05028719 25.61395392 -26.5625 21.8125 C-28.21427499 16.85717504 -28.91680511 10.72542348 -26.65625 5.86328125 C-20.12529732 -2.44693739 -9.52996589 -3.1766553 0 0 Z " fill="#292627" transform="translate(314.5625,189.1875)"/>
<path d="M0 0 C4.62 0 9.24 0 14 0 C14.01981934 1.1552417 14.03963867 2.3104834 14.06005859 3.50073242 C14.13626941 7.79668561 14.22496289 12.09230692 14.31738281 16.38793945 C14.35560866 18.24529456 14.39047263 20.10272208 14.421875 21.96020508 C14.46766461 24.63388912 14.52563579 27.30707742 14.5859375 29.98046875 C14.59748871 30.80773972 14.60903992 31.63501068 14.62094116 32.48735046 C14.72835848 36.7064338 14.91717578 40.21233188 17 44 C20.15796107 45.57898053 23.60670636 45.81928171 27 45 C29.66854501 42.98639749 31.67638082 41.35448477 32.47727966 38.00238037 C32.67427163 35.57774712 32.71829746 33.19434052 32.70703125 30.76171875 C32.72215256 29.88095169 32.73727386 29.00018463 32.75285339 28.09272766 C32.7957029 25.29072412 32.80456556 22.48979842 32.8125 19.6875 C32.8356465 17.78317453 32.86101216 15.87887464 32.88867188 13.97460938 C32.95149697 9.31631109 32.98385369 4.6586845 33 0 C34.65 0 36.3 0 38 0 C38.07436251 5.58672194 38.12870254 11.17315339 38.16479492 16.76025391 C38.17984691 18.65939353 38.20029316 20.55849859 38.22631836 22.45751953 C38.26285992 25.19312081 38.27976238 27.928261 38.29296875 30.6640625 C38.30845261 31.50804596 38.32393646 32.35202942 38.33988953 33.22158813 C38.34153268 39.02557853 37.30233529 43.06975508 33.625 47.75 C29.18932634 51.16205666 24.46848364 51.33759742 19.0625 51.3125 C18.02706055 51.33666992 18.02706055 51.33666992 16.97070312 51.36132812 C12.22610955 51.36582537 9.02071162 50.49807527 5 48 C0.09075223 42.56002275 -0.13923171 38.9769391 -0.09765625 31.8359375 C-0.0962413 30.92872955 -0.09482635 30.02152161 -0.09336853 29.08682251 C-0.08776096 26.18284845 -0.07520718 23.27895085 -0.0625 20.375 C-0.05748598 18.40885528 -0.0529229 16.44270935 -0.04882812 14.4765625 C-0.03778906 9.6510121 -0.02051935 4.82551903 0 0 Z " fill="#282425" transform="translate(330,189)"/>
<path d="M0 0 C2.84625 -0.061875 5.6925 -0.12375 8.625 -0.1875 C9.51010254 -0.21481201 10.39520508 -0.24212402 11.30712891 -0.27026367 C16.29137015 -0.32242825 19.70275439 0.19630927 24 3 C28.19832997 8.19267128 28.56742545 12.59349047 28.3203125 19.19140625 C27.74799103 24.20968839 26.16363904 26.92363388 22.5 30.3125 C19.25230681 32.5046929 16.82083239 33.12647242 12.98828125 33.09765625 C11.96408081 33.09390991 11.96408081 33.09390991 10.91918945 33.09008789 C9.62887817 33.07643188 9.62887817 33.07643188 8.3125 33.0625 C4.1978125 33.0315625 4.1978125 33.0315625 0 33 C0 22.11 0 11.22 0 0 Z " fill="#282526" transform="translate(287,255)"/>
<path d="M0 0 C3.98561154 2.62688033 6.23980531 5.28191592 7.75 9.8125 C8.40956321 17.11094539 8.49790994 23.87389164 3.75 29.8125 C-0.62032176 33.22348284 -5.24120428 33.38076655 -10.62109375 33.234375 C-14.83761532 32.55772666 -16.43564237 30.98767271 -19.25 27.8125 C-21.73699131 24.11213231 -21.6170874 20.24986603 -21.625 15.9375 C-21.64949219 15.24269531 -21.67398437 14.54789062 -21.69921875 13.83203125 C-21.72843931 8.65999138 -20.51240189 5.77483539 -17.25 1.8125 C-11.61225045 -2.03142015 -6.27673045 -2.29342074 0 0 Z " fill="#2A2627" transform="translate(443.25,255.1875)"/>
<path d="M0 0 C3.01125 -0.061875 6.0225 -0.12375 9.125 -0.1875 C10.06230957 -0.21481201 10.99961914 -0.24212402 11.96533203 -0.27026367 C17.05823607 -0.32070457 20.61308502 0.10575737 25 3 C26.56430248 6.12860495 26.35627284 8.55602925 26 12 C23.5 14.4375 23.5 14.4375 21 16 C21.63421875 16.52078125 22.2684375 17.0415625 22.921875 17.578125 C25.54904376 20.63986303 25.77333817 22.77781807 26.25 26.75 C26.39953125 27.92046875 26.5490625 29.0909375 26.703125 30.296875 C26.80109375 31.18890625 26.8990625 32.0809375 27 33 C23.37 33 19.74 33 16 33 C15.93941406 32.08476562 15.87882813 31.16953125 15.81640625 30.2265625 C15.69072266 28.44378906 15.69072266 28.44378906 15.5625 26.625 C15.48128906 25.44164062 15.40007813 24.25828125 15.31640625 23.0390625 C15.18915064 20.08481099 15.18915064 20.08481099 14 18 C12.68 17.67 11.36 17.34 10 17 C10 22.28 10 27.56 10 33 C6.7 33 3.4 33 0 33 C0 22.11 0 11.22 0 0 Z " fill="#2A2728" transform="translate(511,255)"/>
<path d="M0 0 C3.01125 -0.061875 6.0225 -0.12375 9.125 -0.1875 C10.06230957 -0.21481201 10.99961914 -0.24212402 11.96533203 -0.27026367 C17.05823607 -0.32070457 20.61308502 0.10575737 25 3 C26.72515631 6.45031261 26.49677924 10.22716304 26 14 C23.80168636 17.03215675 22.55036806 17.81654398 19 19 C17.43881572 19.06740865 15.8749748 19.08514456 14.3125 19.0625 C12.889375 19.041875 11.46625 19.02125 10 19 C10 23.62 10 28.24 10 33 C6.7 33 3.4 33 0 33 C0 22.11 0 11.22 0 0 Z " fill="#2A2627" transform="translate(455,255)"/>
<path d="M0 0 C2.6875 1.6875 2.6875 1.6875 4.6875 4.6875 C4.6875 6.0075 4.6875 7.3275 4.6875 8.6875 C3.0375 9.0175 1.3875 9.3475 -0.3125 9.6875 C-0.43625 8.718125 -0.56 7.74875 -0.6875 6.75 C-0.89375 5.739375 -1.1 4.72875 -1.3125 3.6875 C-4.26914519 2.2091774 -7.05479737 2.62717217 -10.3125 2.6875 C-10.6425 4.0075 -10.9725 5.3275 -11.3125 6.6875 C-7.68429548 9.59174724 -3.86111039 11.39091511 0.34765625 13.30859375 C2.94019542 14.83641734 4.17154755 16.10117858 5.6875 18.6875 C6.32971857 23.74497126 6.32971857 23.74497126 5.6875 26.6875 C3.51175584 29.37855198 1.77684144 31.14282928 -1.3125 32.6875 C-6.96549688 33.27200485 -11.70798771 33.73660419 -16.5625 30.5625 C-18.56033531 27.28034199 -18.75148196 25.46274481 -18.3125 21.6875 C-16.9925 21.3575 -15.6725 21.0275 -14.3125 20.6875 C-14.19132813 21.25339844 -14.07015625 21.81929688 -13.9453125 22.40234375 C-13.77773438 23.13582031 -13.61015625 23.86929687 -13.4375 24.625 C-13.27507813 25.35589844 -13.11265625 26.08679688 -12.9453125 26.83984375 C-12.48288477 28.89450294 -12.48288477 28.89450294 -10.3125 29.6875 C-7.27076106 29.85420273 -7.27076106 29.85420273 -4.3125 29.6875 C-3.01616379 28.62104885 -3.01616379 28.62104885 -3.25 26.125 C-3.270625 25.320625 -3.29125 24.51625 -3.3125 23.6875 C-4.06015625 23.32398438 -4.8078125 22.96046875 -5.578125 22.5859375 C-15.83514588 17.3500237 -15.83514588 17.3500237 -18.3125 11.6875 C-18.94887349 7.78971237 -18.69061449 6.28167992 -16.5625 2.9375 C-11.59772816 -2.02727184 -6.61618107 -2.62150571 0 0 Z " fill="#2A2627" transform="translate(559.3125,255.3125)"/>
<path d="M0 0 C6.93 0 13.86 0 21 0 C21 0.99 21 1.98 21 3 C17.04 3 13.08 3 9 3 C9 6.3 9 9.6 9 13 C12.3 13 15.6 13 19 13 C19 13.99 19 14.98 19 16 C15.7 16 12.4 16 9 16 C9 20.29 9 24.58 9 29 C13.95 29 18.9 29 24 29 C24 30.32 24 31.64 24 33 C16.08 33 8.16 33 0 33 C0 22.11 0 11.22 0 0 Z " fill="#2A2728" transform="translate(319,255)"/>
<path d="M0 0 C2.97 0 5.94 0 9 0 C9.81520635 2.72838435 10.62724843 5.45764417 11.4375 8.1875 C11.66759766 8.95642578 11.89769531 9.72535156 12.13476562 10.51757812 C13.26235986 14.32525141 14.3168177 18.08151762 15 22 C15.33 22 15.66 22 16 22 C16.14622803 21.44014404 16.29245605 20.88028809 16.44311523 20.3034668 C17.10687509 17.76453929 17.77217038 15.22601658 18.4375 12.6875 C18.66759766 11.80642578 18.89769531 10.92535156 19.13476562 10.01757812 C19.46831055 8.74624023 19.46831055 8.74624023 19.80859375 7.44921875 C20.11494751 6.27879028 20.11494751 6.27879028 20.42749023 5.0847168 C20.89730574 3.37394724 21.4389778 1.6830666 22 0 C23.32 0.33 24.64 0.66 26 1 C24.87798272 5.20913435 23.75186047 9.41715991 22.625 13.625 C22.30789063 14.81480469 21.99078125 16.00460937 21.6640625 17.23046875 C21.3546875 18.38417969 21.0453125 19.53789062 20.7265625 20.7265625 C20.44377441 21.78439941 20.16098633 22.84223633 19.86962891 23.93212891 C19.0028735 26.9898629 18.02852773 29.99323118 17 33 C14.03 33 11.06 33 8 33 C5.66619937 27.45989699 4.32098633 21.75949761 2.875 15.9375 C2.59785156 14.84888672 2.32070313 13.76027344 2.03515625 12.63867188 C1.77347656 11.59130859 1.51179688 10.54394531 1.2421875 9.46484375 C1.0035498 8.512146 0.76491211 7.55944824 0.51904297 6.57788086 C0 4 0 4 0 0 Z " fill="#2C2829" transform="translate(343,255)"/>
<path d="M0 0 C6.93 0 13.86 0 21 0 C21 0.99 21 1.98 21 3 C17.04 3 13.08 3 9 3 C9 6.3 9 9.6 9 13 C12.3 13 15.6 13 19 13 C19 13.99 19 14.98 19 16 C15.7 16 12.4 16 9 16 C9 20.62 9 25.24 9 30 C13.62 30 18.24 30 23 30 C23 30.99 23 31.98 23 33 C15.41 33 7.82 33 0 33 C0 22.11 0 11.22 0 0 Z " fill="#252223" transform="translate(485,255)"/>
<path d="M0 0 C6.93 0 13.86 0 21 0 C21 0.99 21 1.98 21 3 C17.04 3 13.08 3 9 3 C9 6.3 9 9.6 9 13 C12.3 13 15.6 13 19 13 C19 13.99 19 14.98 19 16 C15.7 16 12.4 16 9 16 C9 20.62 9 25.24 9 30 C13.62 30 18.24 30 23 30 C23 30.99 23 31.98 23 33 C15.41 33 7.82 33 0 33 C0 22.11 0 11.22 0 0 Z " fill="#262223" transform="translate(372,255)"/>
<path d="M0 0 C3.3 0 6.6 0 10 0 C10 9.57 10 19.14 10 29 C14.29 29 18.58 29 23 29 C23 30.32 23 31.64 23 33 C15.41 33 7.82 33 0 33 C0 22.11 0 11.22 0 0 Z " fill="#312E2F" transform="translate(398,255)"/>
<path d="M0 0 C2.375 0.3125 2.375 0.3125 5 1 C7.05843815 4.08765723 7.25508393 4.77605952 7.265625 8.2734375 C7.26820313 9.0984375 7.27078125 9.9234375 7.2734375 10.7734375 C7.26570313 11.63195312 7.25796875 12.49046875 7.25 13.375 C7.25773437 14.22578125 7.26546875 15.0765625 7.2734375 15.953125 C7.25973841 20.35053278 7.21663255 24.06802282 5 28 C3.0625 29 3.0625 29 1 29 C-0.60620117 27.82617188 -0.60620117 27.82617188 -2 26 C-2.37231445 23.59570312 -2.37231445 23.59570312 -2.36328125 20.78125 C-2.36263672 19.76675781 -2.36199219 18.75226563 -2.36132812 17.70703125 C-2.34521484 16.64871094 -2.32910156 15.59039062 -2.3125 14.5 C-2.31572266 13.44167969 -2.31894531 12.38335937 -2.32226562 11.29296875 C-2.26710975 3.40066463 -2.26710975 3.40066463 0 0 Z " fill="#F5F5F5" transform="translate(434,257)"/>
<path d="M0 0 C7 0 7 0 9.875 1.8125 C12.64175747 4.66063269 12.95852488 6.44008586 13.25 10.375 C12.98489341 14.21904558 12.31409877 15.97387084 10 19 C8 20 8 20 0 20 C0 13.4 0 6.8 0 0 Z " fill="#F6F6F6" transform="translate(391,215)"/>
<path d="M0 0 C1.98 0 3.96 0 6 0 C9.52894363 3.81185472 9.45716182 8.05203237 9.375 13 C9.38660156 13.69867188 9.39820313 14.39734375 9.41015625 15.1171875 C9.38250535 20.00217969 8.50943616 23.49056384 5 27 C3.35 27 1.7 27 0 27 C0 18.09 0 9.18 0 0 Z " fill="#F2F2F2" transform="translate(296,258)"/>
<path d="M0 0 C7 0 7 0 9.4375 1.4375 C11.71673359 5.17544309 11.64762258 8.72267875 11 13 C9.47682119 16.7615894 9.47682119 16.7615894 7 18 C4.69 18 2.38 18 0 18 C0 12.06 0 6.12 0 0 Z " fill="#F5F5F5" transform="translate(391,193)"/>
<path d="M0 0 C3.11230153 1.94518846 5.74889776 4.13129337 8.5 6.5625 C5.5 6.5625 5.5 6.5625 2.125 4.4375 C-0.74061075 2.70673058 -0.74061075 2.70673058 -4.0625 3 C-6.42898977 4.51698062 -8.54380019 6.18024419 -10.66015625 8.02734375 C-12.88519015 9.8839007 -15.20900812 11.55917492 -17.5625 13.25 C-22.46175623 16.7753198 -27.25136832 20.42021401 -31.99633789 24.14916992 C-35.05477057 26.53199707 -38.17042596 28.58539568 -41.5 30.5625 C-42.99716093 31.68471976 -44.47670115 32.83084014 -45.9375 34 C-49.34389682 36.72389871 -52.87081123 39.14457601 -56.5 41.5625 C-58.44723161 43.00781361 -60.38464212 44.46644379 -62.3125 45.9375 C-67.25879565 49.67346613 -72.28909628 53.20699382 -77.5 56.5625 C-78.16 56.2325 -78.82 55.9025 -79.5 55.5625 C-70.13930396 48.63834269 -60.76643047 41.73400299 -51.3125 34.9375 C-45.66127034 30.87295703 -40.05650459 26.75559342 -34.5 22.5625 C-28.6708385 18.16476633 -22.79333859 13.83953751 -16.875 9.5625 C-16.12863281 9.02238281 -15.38226563 8.48226562 -14.61328125 7.92578125 C-12.58189381 6.46215001 -10.54276305 5.01019503 -8.5 3.5625 C-7.62553223 2.93033569 -7.62553223 2.93033569 -6.73339844 2.28540039 C-2.78844891 -0.48797856 -2.78844891 -0.48797856 0 0 Z " fill="#EBDA93" transform="translate(244.5,99.4375)"/>
<path d="M0 0 C0.99 0.33 1.98 0.66 3 1 C0.63424596 2.96019621 -1.66868738 4.80300331 -4.3125 6.375 C-5.199375 6.91125 -6.08625 7.4475 -7 8 C-7.65250732 8.37641695 -8.30501465 8.7528339 -8.97729492 9.14065742 C-13.23732824 11.84624353 -13.23732824 11.84624353 -15.7434082 16.06481552 C-16.02412146 18.54085885 -16.05579757 20.91041793 -16 23.40185547 C-16.01092178 24.32932083 -16.02184357 25.25678619 -16.03309631 26.21235657 C-16.05971924 29.26509228 -16.03018081 32.31452947 -16 35.3671875 C-16.00752023 37.48855068 -16.01855565 39.60990407 -16.03295898 41.73123169 C-16.06137602 47.30467839 -16.04211287 52.87697568 -16.01287842 58.45037842 C-15.99147684 64.14147432 -16.01522318 69.83236282 -16.03515625 75.5234375 C-16.06759417 86.68255093 -16.04965638 97.84097102 -16 109 C-10.72 109 -5.44 109 0 109 C0 109.33 0 109.66 0 110 C-5.61 110 -11.22 110 -17 110 C-17.32503476 97.39587416 -17.57345563 84.7927518 -17.72537041 72.18528175 C-17.79830287 66.3301814 -17.89712693 60.47795673 -18.05615234 54.62451172 C-18.20879662 48.97025939 -18.29208004 43.31876335 -18.3282814 37.6626091 C-18.35406047 35.51013156 -18.40440989 33.35779756 -18.48022079 31.20650101 C-19.03630972 14.76544137 -19.03630972 14.76544137 -15.60739899 10.10875702 C-11.87043346 6.51299384 -7.64115906 4.23795022 -3 2 C-2.01 1.34 -1.02 0.68 0 0 Z " fill="#B1904A" transform="translate(237,178)"/>
<path d="M0 0 C0.66 0.33 1.32 0.66 2 1 C2.80633284 3.79567955 3.49938518 6.5388795 4.125 9.375 C4.30675781 10.15617188 4.48851562 10.93734375 4.67578125 11.7421875 C5.40177996 14.93003144 6 17.71535044 6 21 C2.37 21 -1.26 21 -5 21 C-4.42351925 13.64987044 -2.28953836 6.98575424 0 0 Z " fill="#F2F2F2" transform="translate(486,202)"/>
<path d="M0 0 C-0.81139938 0.47266296 -1.62279877 0.94532593 -2.45878601 1.43231201 C-5.61522009 4.62162937 -5.60256092 6.13894265 -5.68556213 10.46304321 C-5.67693649 11.32763153 -5.66831085 12.19221985 -5.65942383 13.08300781 C-5.66990753 14.00042755 -5.68039124 14.91784729 -5.69119263 15.86306763 C-5.71997861 18.89342929 -5.71364687 21.92265091 -5.70703125 24.953125 C-5.72014411 27.05492589 -5.73544706 29.15671417 -5.75285339 31.25848389 C-5.79276423 36.78888575 -5.80289779 42.31895841 -5.80688477 47.8494873 C-5.81620469 53.49351018 -5.85361109 59.13733871 -5.88867188 64.78125 C-5.95331005 75.85420321 -5.9839035 86.9268697 -6 98 C2.25 98 10.5 98 19 98 C19 98.33 19 98.66 19 99 C10.42 99 1.84 99 -7 99 C-7.09027222 86.40459467 -7.16369931 73.80940324 -7.20724869 61.21374798 C-7.22814735 55.36543981 -7.25650687 49.51736392 -7.30175781 43.66918945 C-7.34513382 38.02819846 -7.36911992 32.38743125 -7.37950897 26.74628639 C-7.38691515 24.59121997 -7.40137719 22.43616616 -7.42292023 20.28119469 C-7.45184428 17.2688156 -7.45596057 14.25736804 -7.45410156 11.24487305 C-7.46848267 10.34863724 -7.48286377 9.45240143 -7.49768066 8.52900696 C-7.45748048 2.53189064 -7.45748048 2.53189064 -5.15911865 -0.14030457 C-3 -1 -3 -1 0 0 Z " fill="#B1904A" transform="translate(123,189)"/>
<path d="M0 0 C0.66 0.33 1.32 0.66 2 1 C1.02594208 1.82448639 0.05188416 2.64897278 -0.95169067 3.4984436 C-3.85149256 6.41718395 -4.70682617 8.60496615 -4.8099823 12.82342529 C-4.79776138 13.54991272 -4.78554047 14.27640015 -4.77294922 15.02490234 C-4.78357895 15.80606415 -4.79420868 16.58722595 -4.80516052 17.39205933 C-4.83312012 19.95734864 -4.81917797 22.52056676 -4.8046875 25.0859375 C-4.81594231 26.87100006 -4.829825 28.65604782 -4.84622192 30.44107056 C-4.88222847 35.12654524 -4.88263749 39.81136699 -4.87554932 44.49694824 C-4.87463579 49.28324023 -4.90750377 54.06928833 -4.9375 58.85546875 C-4.99133302 68.23712528 -5.00442389 77.61818987 -5 87 C-15.56 87 -26.12 87 -37 87 C-37 86.67 -37 86.34 -37 86 C-26.77 86 -16.54 86 -6 86 C-6.04713135 82.35868042 -6.04713135 82.35868042 -6.09521484 78.64379883 C-6.19465352 70.62129109 -6.26091598 62.59875604 -6.31087303 54.57579517 C-6.34217994 49.71157535 -6.38464074 44.84798715 -6.45263672 39.98413086 C-6.51785262 35.28973375 -6.55371087 30.59594393 -6.56926346 25.90112877 C-6.58034587 24.11049526 -6.60198801 22.31989483 -6.63438034 20.52952003 C-6.67797591 18.02000888 -6.68393319 15.51300302 -6.68115234 13.00317383 C-6.71350983 11.89402367 -6.71350983 11.89402367 -6.746521 10.76246643 C-6.71171242 7.85716173 -6.55549831 5.64530052 -4.61845779 3.39511681 C-2.95742798 1.99980164 -2.95742798 1.99980164 0 0 Z " fill="#FEFCDE" transform="translate(153,202)"/>
<path d="M0 0 C1.65 0 3.3 0 5 0 C7.60704898 2.60704898 7.23905333 4.47338241 7.265625 8.02734375 C7 10 7 10 5 13 C3.35 13 1.7 13 0 13 C0 8.71 0 4.42 0 0 Z " fill="#F7F6F7" transform="translate(465,258)"/>
<path d="M0 0 C3.465 1.98 3.465 1.98 7 4 C7 4.33 7 4.66 7 5 C-3.89 5 -14.78 5 -26 5 C-26 4.67 -26 4.34 -26 4 C-20.5372312 2.14772343 -15.92496111 1.80095538 -10.1875 2 C-7.43417277 2.09309644 -4.7590194 2.09402409 -2 2 C-1.34 1.34 -0.68 0.68 0 0 Z " fill="#C1A04F" transform="translate(391,132)"/>
<path d="M0 0 C2.97 0.495 2.97 0.495 6 1 C7.25 7.625 7.25 7.625 5 11 C3.35 11 1.7 11 0 11 C0 7.37 0 3.74 0 0 Z " fill="#F7F7F7" transform="translate(521,258)"/>
<path d="M0 0 C5.23890086 -0.31433405 8.52833673 0.19221144 13 3 C15 6 15 6 15 10 C13.35 10.33 11.7 10.66 10 11 C9.67 9.02 9.34 7.04 9 5 C8.071875 4.731875 7.14375 4.46375 6.1875 4.1875 C3.23759634 3.08851629 1.94384814 2.37581439 0 0 Z " fill="#464344" transform="translate(549,254)"/>
<path d="M0 0 C0.66 0.33 1.32 0.66 2 1 C0.2711195 2.41701589 -1.45811746 3.83359686 -3.1875 5.25 C-4.63189453 6.43335937 -4.63189453 6.43335937 -6.10546875 7.640625 C-10.30358919 11.06257473 -14.3328196 14.24756028 -19 17 C-19.70125 17.5775 -20.4025 18.155 -21.125 18.75 C-21.74375 19.1625 -22.3625 19.575 -23 20 C-23.99 19.67 -24.98 19.34 -26 19 C-25.24493164 18.45641846 -25.24493164 18.45641846 -24.47460938 17.90185547 C-22.14915924 16.22704113 -19.82457637 14.55102685 -17.5 12.875 C-16.70851563 12.30523437 -15.91703125 11.73546875 -15.1015625 11.1484375 C-10.02552911 7.48703637 -4.99209918 3.77505983 0 0 Z " fill="#ECDD97" transform="translate(320,117)"/>
<path d="M0 0 C0.99 0 1.98 0 3 0 C3.18175781 0.84884766 3.18175781 0.84884766 3.3671875 1.71484375 C3.53476562 2.44832031 3.70234375 3.18179687 3.875 3.9375 C4.03742187 4.66839844 4.19984375 5.39929688 4.3671875 6.15234375 C4.82961523 8.20700294 4.82961523 8.20700294 7 9 C7 9.99 7 10.98 7 12 C3.20167325 11.45738189 1.30727513 10.04889927 -1 7 C-1.3125 3.8125 -1.3125 3.8125 -1 1 C-0.67 0.67 -0.34 0.34 0 0 Z " fill="#333031" transform="translate(542,276)"/>
<path d="M0 0 C3.06715058 1.91369224 5.57571501 4.03139132 8.28515625 6.42578125 C5.28515625 6.42578125 5.28515625 6.42578125 1.91015625 4.30078125 C-0.9554545 2.57001183 -0.9554545 2.57001183 -4.27734375 2.86328125 C-7.31436427 4.81008927 -9.96943396 7.08926228 -12.71484375 9.42578125 C-15.08984375 10.73828125 -15.08984375 10.73828125 -16.71484375 11.42578125 C-15.37989959 7.42094878 -12.78485577 5.94164854 -9.46484375 3.61328125 C-8.89121094 3.18080078 -8.31757813 2.74832031 -7.7265625 2.30273438 C-3.43099191 -0.72569181 -3.43099191 -0.72569181 0 0 Z " fill="#DBC57F" transform="translate(244.71484375,99.57421875)"/>
<path d="M0 0 C0.66 0.33 1.32 0.66 2 1 C-4.43095003 6.40921031 -10.88396652 11.51953448 -18 16 C-18.66 15.67 -19.32 15.34 -20 15 C-6.3667426 4.44191344 -6.3667426 4.44191344 0 0 Z " fill="#E0CB83" transform="translate(342,101)"/>
<path d="M0 0 C0.66 0.33 1.32 0.66 2 1 C-1.14368262 4.32332163 -4.03707215 6.74833645 -8 9 C-11.01730234 10.97422143 -14.00888269 12.98637201 -17 15 C-17.66 14.67 -18.32 14.34 -19 14 C-12.73 9.38 -6.46 4.76 0 0 Z " fill="#C0A059" transform="translate(140,173)"/>
<path d="M0 0 C0.99 0.33 1.98 0.66 3 1 C-3.27335297 5.42670836 -9.59012233 9.77319661 -16 14 C-16.66 13.67 -17.32 13.34 -18 13 C-15.07475404 10.79571836 -12.13300646 8.61461347 -9.1875 6.4375 C-8.35412109 5.80908203 -7.52074219 5.18066406 -6.66210938 4.53320312 C-5.45844727 3.64858398 -5.45844727 3.64858398 -4.23046875 2.74609375 C-3.49207764 2.19622803 -2.75368652 1.6463623 -1.99291992 1.07983398 C-1.33525635 0.72348877 -0.67759277 0.36714355 0 0 Z " fill="#DCC67E" transform="translate(183,142)"/>
<path d="M0 0 C0.99 0.33 1.98 0.66 3 1 C-0.20341345 3.65425686 -3.4210013 5.88930846 -7 8 C-7.70125 8.5775 -8.4025 9.155 -9.125 9.75 C-10.053125 10.36875 -10.053125 10.36875 -11 11 C-11.99 10.67 -12.98 10.34 -14 10 C-11.73784237 8.29964638 -9.46661767 6.61484079 -7.1875 4.9375 C-6.54490234 4.45216797 -5.90230469 3.96683594 -5.24023438 3.46679688 C-3.54907099 2.23128373 -1.77779254 1.10723982 0 0 Z " fill="#BF9D53" transform="translate(237,178)"/>
<path d="M0 0 C0.66 0.33 1.32 0.66 2 1 C-1.56430755 4.14985318 -4.40693504 6.5140084 -9 8 C-6.14723863 5.06799526 -3.34920216 2.35684596 0 0 Z " fill="#E6D490" transform="translate(331,109)"/>
<path d="M0 0 C0.66 0.33 1.32 0.66 2 1 C-1.17320782 4.53586014 -3.16743695 6.58578031 -8 7 C-5.42215154 4.35247996 -3.08351902 2.05567935 0 0 Z " fill="#C5A760" transform="translate(140,173)"/>
</svg>
